<?xml version="1.0" encoding="UTF-8"?>
<!DOCTYPE svg PUBLIC "-//W3C//DTD SVG 1.1//EN" "http://www.w3.org/Graphics/SVG/1.1/DTD/svg11.dtd">
<!-- Creator: CorelDRAW 2020 (64-Bit) -->
<svg xmlns="http://www.w3.org/2000/svg" xml:space="preserve" width="24.4499mm" height="24.4664mm" version="1.1" style="shape-rendering:geometricPrecision; text-rendering:geometricPrecision; image-rendering:optimizeQuality; fill-rule:evenodd; clip-rule:evenodd"
viewBox="0 0 42.1 42.13"
 xmlns:xlink="http://www.w3.org/1999/xlink"
 xmlns:xodm="http://www.corel.com/coreldraw/odm/2003">
 <defs>
  <style type="text/css">
   <![CDATA[
    .fil0 {fill:#FEFEFE}
    .fil1 {fill:#ED3237}
   ]]>
  </style>
 </defs>
 <g id="Capa_x0020_1">
  <metadata id="CorelCorpID_0Corel-Layer"/>
  <g id="_2149828388352">
   <path class="fil0" d="M25.4 28.06l14.12 14.07 2.58 -2.58 -14.05 -14.14c0.74,-1.4 1.5,-1.66 2.6,-4.95 3.33,-9.98 -4.43,-20.83 -15.55,-20.45 -10.72,0.38 -17.93,11.3 -14.02,21.39 3.31,8.57 13.71,12.61 21.94,8.16l2.38 -1.5z"/>
   <path class="fil1" d="M14.1 3.84c-6.78,0.99 -11.15,7.04 -10.25,13.5 0.83,6 6.42,11.2 13.52,10.2 6.02,-0.85 11.22,-6.46 10.19,-13.54 -0.86,-5.97 -6.4,-11.19 -13.45,-10.16z"/>
  </g>
 </g>
</svg>
