<?xml version="1.0" encoding="UTF-8"?>
<!DOCTYPE svg PUBLIC "-//W3C//DTD SVG 1.1//EN" "http://www.w3.org/Graphics/SVG/1.1/DTD/svg11.dtd">
<!-- Creator: CorelDRAW 2020 (64-Bit) -->
<svg xmlns="http://www.w3.org/2000/svg" xml:space="preserve" width="143.224mm" height="143.271mm" version="1.1" style="shape-rendering:geometricPrecision; text-rendering:geometricPrecision; image-rendering:optimizeQuality; fill-rule:evenodd; clip-rule:evenodd"
viewBox="0 0 1831.36 1831.97"
 xmlns:xlink="http://www.w3.org/1999/xlink"
 xmlns:xodm="http://www.corel.com/coreldraw/odm/2003">
 <defs>
  <style type="text/css">
   <![CDATA[
    .str1 {stroke:#373435;stroke-width:2.56;stroke-miterlimit:22.9256}
    .str2 {stroke:black;stroke-width:0.97;stroke-miterlimit:22.9256}
    .str0 {stroke:#F21D09;stroke-width:0.97;stroke-miterlimit:22.9256}
    .fil5 {fill:#FEFEFE}
    .fil2 {fill:#020607}
    .fil6 {fill:#2A2B2B}
    .fil3 {fill:#CD2625}
    .fil4 {fill:#D6D6D6}
    .fil0 {fill:#EC1A23}
    .fil1 {fill:#F6F6F6}
   ]]>
  </style>
 </defs>
 <g id="Capa_x0020_1">
  <metadata id="CorelCorpID_0Corel-Layer"/>
  <g id="_2149830041408">
   <path class="fil0 str0" d="M613.66 854.48c27.82,-130.9 145.14,-240.91 297.51,-241.34 115.62,-0.32 209.25,58.03 262.89,145.63 14.5,23.68 37.71,71.48 37.97,99l2.45 -1.01 337.65 -0.08 -5.41 -44.53c-0.66,-18.08 -6.03,-54.15 -9.68,-72.35 -4.45,-22.11 -8.89,-43.75 -14.11,-66.28 -8.4,-36.29 -24.49,-89.41 -39.05,-122.03 -7.62,-17.08 -17.01,-36.79 -25.56,-54.16 -18.87,-38.35 -33.8,-65.08 -59.19,-101.16 -59,-83.83 -117.38,-142.28 -198.51,-201.87 -15.9,-11.68 -31.36,-20.33 -48.26,-32 -24.67,-17.04 -107.93,-59.13 -134.46,-65.64 -5.82,-1.43 -11.41,-2.13 -17.42,-3.23 -9.29,-1.71 -10.84,-2.27 -16.03,-7.03 -9.96,-0.36 -15.49,-3.68 -26.75,-0.48 -46.52,11.54 -57.86,-14.81 -152.42,26.44 -83.54,36.45 -125.5,68.04 -191.23,119.73 -24.18,19.01 -48.16,42.06 -69.51,63.45 -17.03,17.07 -47.14,51.56 -60.6,72.32 -4.11,6.34 -13.36,19.39 -18.48,24.94 -8.41,9.12 -43.86,69.68 -51.33,83.73 -41.35,77.79 -49.19,109.07 -74.25,191.08 -8.5,27.81 -32.01,167.37 -28.2,189.44 40.58,4.83 109.48,0.73 153.1,0.73 29.16,0 130.74,3.77 148.89,-3.3z"/>
   <path class="fil1" d="M875.08 1748.47c34.29,2.85 87.07,1.52 120.81,-3.22 3.56,-2.71 127.63,-54.04 211.56,-118.2 59.58,-45.55 122.19,-99.81 168.17,-159.38 106.75,-138.29 170.95,-294.22 177.62,-476.06 -51.42,-4.34 -119.54,-0.64 -172.76,-0.64 -28.38,0 -153,-4.29 -170.01,3.13 -3.44,5.85 -11.41,34.72 -16.08,45.37 -47.53,108.42 -151.62,183.92 -278.63,184.93 -129.38,1.03 -232.84,-74.3 -282.22,-181.74 -7.26,-15.8 -10.52,-30.16 -16.79,-47.13 -0.61,-0.46 -1.52,-1.81 -1.93,-1.23l-150.04 -3.34c-40.34,0 -120.35,-4.52 -156.03,1.07 7.36,160.23 56.93,305.34 144.92,432.08 54.49,78.49 127.46,151.89 205.77,206.35 28.11,19.55 69.91,48.7 101.17,63.72 28.53,13.72 52.76,27.69 83.12,40.57 4.72,2 9.96,4.44 14.61,6.2 3.08,1.17 6.36,1.91 8.29,2.67l8.47 4.84z"/>
   <path class="fil2" d="M1743.86 1010.13c-22.29,216.36 -132.55,389.92 -241.13,497.71 -56,55.6 -128.89,111.59 -216.13,154.77 -75.39,37.31 -191.28,77.72 -290.72,82.65 -33.74,4.74 -86.53,6.06 -120.81,3.22 -391.71,-20.81 -696.88,-296.6 -775.64,-663.36 -5.92,-27.55 -7.82,-55.36 -12.66,-81.85l-0.41 -13.93c33.6,-0.7 501.17,-3.56 530.63,0.31l-0.26 5.9c6.26,16.97 9.53,31.33 16.79,47.13 49.38,107.44 152.84,182.76 282.22,181.74 127.01,-1.01 231.1,-76.51 278.63,-184.93 4.67,-10.65 12.64,-39.51 16.08,-45.37l-0.72 -4.9 535.05 0 -0.92 20.92zm-1129.59 -149.41c-27.79,5.34 -100.98,1.54 -133.49,1.53 -55.5,-0.01 -368.15,1.67 -396.23,-1.18l3.14 -42.45c18.77,-118.24 40.76,-200.46 97.22,-303.38 94.62,-172.45 249.24,-307.2 429.75,-376.4 50.24,-19.26 98.79,-33.59 157.76,-43.69 57.76,-9.89 105.63,-12.76 163.95,-12.46l21.31 3.21c11.26,-3.2 16.8,0.12 26.75,0.48 97.79,2.27 223.01,44.4 294.88,79.61 81.59,39.96 155.43,92.5 217.77,152.93 116.52,112.95 221.48,287.51 245.36,492.06l2.71 50.75 -522.65 0.52c-14.88,-0.48 -3.16,1.02 -8.03,-5.49l-2.45 1.01c-0.26,-27.52 -23.47,-75.33 -37.97,-99 -53.64,-87.6 -147.27,-145.95 -262.89,-145.63 -152.37,0.42 -269.7,110.44 -297.51,241.34l0.62 6.24zm1216.52 92.2c17.61,-517.24 -376.25,-920.22 -860.33,-951.09 -283.31,-18.07 -522.55,100.21 -670.59,236.77 -140.88,129.96 -278.29,333.62 -297.56,611.34 -36.27,522.5 358.47,937.94 831.3,978.51 284.56,24.42 523.15,-81.56 682.07,-220.65 122.82,-107.5 215.76,-240.38 271.11,-408.66 9.17,-27.89 46.42,-165.08 37.45,-189.9l4 -12.48c0.82,-3.99 1.88,-8.87 2.1,-12.19 0.61,-8.99 0.21,-22.06 0.45,-31.65z"/>
   <path class="fil3" d="M87.7 818.63l-3.14 42.45c28.08,2.85 340.72,1.17 396.23,1.18 32.5,0.01 105.7,3.8 133.49,-1.53l-0.62 -6.24c-18.16,7.07 -119.73,3.3 -148.89,3.3 -43.62,-0 -112.52,4.1 -153.1,-0.73 -3.81,-22.07 19.7,-161.63 28.2,-189.44 25.07,-82.01 32.91,-113.29 74.25,-191.08 7.47,-14.05 42.93,-74.61 51.33,-83.73 5.12,-5.55 14.37,-18.61 18.48,-24.94 13.45,-20.76 43.57,-55.25 60.6,-72.32 21.35,-21.4 45.33,-44.44 69.51,-63.45 65.73,-51.68 107.69,-83.28 191.23,-119.73 94.56,-41.26 105.9,-14.9 152.42,-26.44l-21.31 -3.21c-58.32,-0.3 -106.18,2.57 -163.95,12.46 -58.97,10.1 -107.51,24.43 -157.76,43.69 -180.52,69.2 -335.13,203.95 -429.75,376.4 -56.47,102.92 -78.46,185.14 -97.22,303.38z"/>
   <path class="fil4" d="M86.78 1003.26c4.84,26.49 6.74,54.29 12.66,81.85 78.76,366.76 383.93,642.55 775.64,663.36l-8.47 -4.84c-1.94,-0.76 -5.22,-1.51 -8.29,-2.67 -4.65,-1.76 -9.9,-4.2 -14.61,-6.2 -30.36,-12.88 -54.58,-26.85 -83.12,-40.57 -31.26,-15.03 -73.06,-44.17 -101.17,-63.72 -78.3,-54.46 -151.27,-127.87 -205.77,-206.35 -87.99,-126.73 -137.56,-271.85 -144.92,-432.08 35.68,-5.59 115.69,-1.07 156.03,-1.07l150.04 3.34c0.42,-0.58 1.32,0.77 1.93,1.23l0.26 -5.9c-29.46,-3.87 -497.03,-1.01 -530.63,-0.31l0.41 13.93z"/>
   <path class="fil3" d="M1214.48 856.77c4.87,6.51 -6.85,5.01 8.03,5.49l522.65 -0.52 -2.71 -50.75c-23.89,-204.55 -128.85,-379.12 -245.36,-492.06 -62.34,-60.43 -136.18,-112.97 -217.77,-152.93 -71.87,-35.2 -197.1,-77.33 -294.88,-79.61 5.19,4.76 6.74,5.31 16.03,7.03 6.01,1.11 11.6,1.81 17.42,3.23 26.53,6.51 109.78,48.6 134.46,65.64 16.9,11.68 32.36,20.33 48.26,32 81.13,59.59 139.51,118.04 198.51,201.87 25.4,36.09 40.32,62.82 59.19,101.16 8.55,17.37 17.94,37.08 25.56,54.16 14.56,32.62 30.65,85.75 39.05,122.03 5.22,22.54 9.66,44.17 14.11,66.28 3.66,18.2 9.03,54.28 9.68,72.35l5.41 44.53 -337.65 0.08z"/>
   <path class="fil4" d="M995.89 1745.26c99.44,-4.93 215.34,-45.33 290.72,-82.65 87.24,-43.18 160.12,-99.17 216.13,-154.77 108.58,-107.79 218.84,-281.35 241.13,-497.71l0.92 -20.92 -535.05 -0 0.72 4.9c17.01,-7.42 141.63,-3.13 170.01,-3.13 53.23,0 121.35,-3.7 172.76,0.64 -6.66,181.84 -70.87,337.77 -177.62,476.06 -45.98,59.57 -108.59,113.83 -168.17,159.38 -83.94,64.16 -208,115.49 -211.56,118.2z"/>
   <circle class="fil5 str1" cx="915.01" cy="918.37" r="207.66"/>
   <path class="fil6" d="M778.34 897.96c0.65,-0.39 3.08,-1.71 3.76,-1.97l16.81 -1.88c17.89,0.22 53.05,-3.43 58.03,5.64 4.38,7.99 -39.62,77.64 -48.02,99.51l-5 -0.54c21.45,41.35 99.66,73.92 163.93,45.1 25.79,-11.57 46.75,-29.98 60.48,-51.56 9.44,-14.84 32.8,-69.27 19.2,-89.14 -2.66,11.19 0.3,26.68 -3.56,35.09 -14.98,1.18 -57.76,3.07 -69.25,-2.82 -2.83,-10.23 3.45,-16.58 8.98,-26.87 6.09,-11.33 31.58,-66.64 39.92,-68.75 -7.59,-17.65 -38.43,-39.05 -57.34,-47.1 -78.94,-33.58 -174.51,14.95 -187.93,105.31z"/>
   <path class="fil2 str2" d="M778.34 897.96c-5.75,31.05 6.78,87.53 25.58,100.75l5 0.54c8.4,-21.87 52.39,-91.53 48.02,-99.51 -4.97,-9.07 -40.14,-5.42 -58.03,-5.64l-16.81 1.88c-0.68,0.26 -3.1,1.58 -3.76,1.97z"/>
   <path class="fil2 str2" d="M1047.52 903.1c1.87,-19.2 -13.15,-56.16 -23.91,-63.36 -8.34,2.11 -33.82,57.42 -39.92,68.75 -5.53,10.29 -11.81,16.63 -8.98,26.87 11.49,5.9 54.27,4.01 69.25,2.82 3.86,-8.41 0.9,-23.9 3.56,-35.09z"/>
  </g>
 </g>
</svg>
